<?xml version="1.0" encoding="utf-8"?>
<!-- Generator: Adobe Illustrator 16.0.0, SVG Export Plug-In . SVG Version: 6.00 Build 0)  -->
<!DOCTYPE svg PUBLIC "-//W3C//DTD SVG 1.1//EN" "http://www.w3.org/Graphics/SVG/1.1/DTD/svg11.dtd">
<svg version="1.1" id="Layer_1" xmlns="http://www.w3.org/2000/svg" xmlns:xlink="http://www.w3.org/1999/xlink" x="0px" y="0px"
	 width="989.996px" height="725.5px" viewBox="0 0 989.996 725.5" enable-background="new 0 0 989.996 725.5" xml:space="preserve">
<title>C4</title>
<g>
	<g id="path11">
		<rect x="0" y="358.533" fill="#131516" width="989.995" height="8.433"/>
	</g>
	<g id="path13">
		<rect x="0" y="598.533" fill="#131516" width="989.995" height="8.434"/>
	</g>
	<g id="path13_1_">
		<rect x="506.039" y="57.112" fill="#131516" width="200.498" height="8.434"/>
	</g>
	<g id="path15">
		<rect x="0" y="478.533" fill="#131516" width="989.995" height="8.432"/>
	</g>
	<g id="path17">
		<rect x="0" y="238.533" fill="#131516" width="989.995" height="8.432"/>
	</g>
	<g id="path19">
		<rect x="0" y="118.533" fill="#131516" width="989.995" height="8.432"/>
	</g>
	<path id="path2070" stroke="#131516" stroke-width="0.6211" d="M31.322,506.881c32.757-22.117,57.221-38.863,72.979-50.439
		c15.756-11.369,32.342-25.633,49.343-42.584c17.001-16.949,31.306-36.174,42.916-57.466c9.123-15.711,17.001-33.902,23.428-54.573
		c6.427-20.466,9.744-40.311,10.366-59.122c0-17.571-2.28-34.315-7.049-50.025c-4.561-15.918-12.439-28.939-23.635-39.481
		c-11.195-10.336-25.708-15.505-43.745-15.505c-17.416,0-33.794,3.515-49.136,10.337c-15.135,7.026-25.916,18.189-31.928,33.899
		c0,1.447-0.83,3.31-2.073,5.995c0.415,3.31,2.073,5.788,5.183,7.649c3.11,1.859,5.805,2.687,8.293,2.687
		c1.244,0,4.769-0.62,10.159-1.858c5.598-1.241,10.159-2.068,13.891-2.068c10.988,0,20.733,3.928,29.648,11.577
		c8.707,7.647,13.061,16.95,13.061,27.906c0,7.854-2.281,15.298-6.634,22.118c-4.354,6.821-10.367,12.402-18.038,16.33
		c-7.671,4.136-16.171,5.995-25.293,5.995c-16.586,0-30.684-4.962-42.294-15.091c-11.403-10.336-17.208-23.358-17.208-39.688
		c0-20.88,6.427-38.863,19.074-54.16c12.854-15.299,29.025-26.667,48.929-34.316c19.696-7.854,39.599-11.576,59.917-11.576
		c22.184,0,43.331,5.582,63.027,16.951c19.903,11.163,35.452,26.667,47.063,45.892c11.611,19.433,17.624,40.104,17.624,62.43
		c0,39.688-13.271,76.486-39.807,110.594c-26.538,34.108-59.295,63.668-98.48,88.891c-26.123,17.154-68.417,40.307-126.675,69.455
		L31.322,506.881L31.322,506.881L31.322,506.881L31.322,506.881L31.322,506.881L31.322,506.881z M319.295,187.088
		c0-7.44,2.695-13.643,8.085-18.604c5.185-5.168,11.61-7.649,19.281-7.649c6.635,0,12.855,2.896,18.452,8.478
		c5.598,5.374,8.293,11.781,8.293,18.811c0,7.442-2.902,13.852-8.293,19.02c-5.805,4.961-12.232,7.44-19.488,7.44
		c-7.671,0-13.891-2.479-18.867-8.062C321.783,201.146,319.295,194.738,319.295,187.088z M319.295,295.408
		c0-7.441,2.695-13.85,7.671-18.811c5.185-5.168,11.61-7.649,19.695-7.649c6.635,0,12.647,2.688,18.452,8.27
		c5.391,5.581,8.293,11.575,8.293,18.19c0,8.063-2.695,14.472-7.878,19.639c-5.391,5.169-11.61,7.855-18.867,7.855
		c-8.085,0-14.512-2.688-19.695-7.648C321.991,310.292,319.295,303.679,319.295,295.408z"/>
	<g id="g2083">
		<path id="path3855" d="M606.289,11.991c-36.02,0-65.252,22.128-65.252,49.338c0,26.052,29.73,49.338,65.252,49.338
			c36.018,0,65.25-22.126,65.25-49.338C671.539,34.119,642.306,11.991,606.289,11.991z"/>
	</g>
</g>
</svg>
